<?xml version="1.0" encoding="utf-8"?>
<!-- Generator: Adobe Illustrator 22.0.0, SVG Export Plug-In . SVG Version: 6.00 Build 0)  -->
<svg version="1.1" id="Capa_2" xmlns="http://www.w3.org/2000/svg" xmlns:xlink="http://www.w3.org/1999/xlink" x="0px" y="0px"
	 viewBox="0 0 583 400" style="enable-background:new 0 0 583 400;" xml:space="preserve">
<style type="text/css">
	.st0{fill:#69488E;}
	.st1{fill:#E81F76;}
	.st2{fill:#93D500;}
	.st3{fill:#FFC600;}
	.st4{fill:#19D3C5;}
</style>
<path class="st0" d="M27.1,315.3v11.1h-6v-11.1l-10.5-17.8h5.3c0.5,0,0.9,0.1,1.2,0.4c0.3,0.2,0.6,0.6,0.7,0.9l4.7,9.1
	c0.3,0.6,0.6,1.2,0.9,1.7c0.3,0.5,0.5,1.1,0.7,1.6c0.2-0.5,0.4-1.1,0.6-1.6c0.2-0.5,0.5-1.1,0.8-1.7l4.7-9.1
	c0.2-0.3,0.4-0.6,0.7-0.9c0.3-0.3,0.7-0.4,1.2-0.4h5.3L27.1,315.3z"/>
<path class="st0" d="M60.1,321.7c1,0,1.8-0.2,2.6-0.5c0.8-0.3,1.4-0.8,2-1.4c0.5-0.6,0.9-1.3,1.2-2.2c0.3-0.9,0.4-1.8,0.4-2.9v-17.2
	h6v17.2c0,1.8-0.3,3.4-0.8,4.8c-0.6,1.5-1.4,2.7-2.4,3.8c-1,1.1-2.3,1.9-3.8,2.5c-1.5,0.6-3.2,0.9-5.1,0.9c-1.9,0-3.6-0.3-5.1-0.9
	c-1.5-0.6-2.8-1.4-3.8-2.5c-1.1-1.1-1.9-2.3-2.4-3.8c-0.6-1.5-0.8-3.1-0.8-4.8v-17.2h6v17.2c0,1.1,0.1,2,0.4,2.9
	c0.3,0.9,0.7,1.6,1.2,2.2c0.5,0.6,1.2,1.1,2,1.4C58.3,321.5,59.1,321.7,60.1,321.7"/>
<path class="st0" d="M105.7,319.3c0.3,0,0.6,0.1,0.8,0.4l2.4,2.5c-1.2,1.5-2.6,2.6-4.4,3.4c-1.7,0.8-3.8,1.2-6.2,1.2
	c-2.2,0-4.1-0.4-5.8-1.1c-1.7-0.7-3.2-1.8-4.4-3.1c-1.2-1.3-2.1-2.9-2.8-4.7c-0.7-1.8-1-3.8-1-5.9c0-1.4,0.2-2.8,0.5-4.1
	c0.3-1.3,0.8-2.5,1.4-3.6c0.6-1.1,1.3-2.1,2.2-3c0.8-0.9,1.8-1.6,2.9-2.2c1.1-0.6,2.2-1.1,3.5-1.4c1.3-0.3,2.6-0.5,4-0.5
	c1.1,0,2.1,0.1,3,0.3c1,0.2,1.8,0.4,2.7,0.8c0.8,0.3,1.6,0.7,2.3,1.2c0.7,0.5,1.3,1,1.9,1.5l-2,2.8c-0.1,0.2-0.3,0.3-0.5,0.5
	c-0.2,0.1-0.4,0.2-0.8,0.2c-0.3,0-0.6-0.1-1-0.3c-0.3-0.2-0.7-0.5-1.2-0.8c-0.5-0.3-1.1-0.5-1.8-0.8c-0.7-0.2-1.6-0.3-2.7-0.3
	c-1.2,0-2.3,0.2-3.3,0.7c-1,0.4-1.9,1.1-2.6,1.9c-0.7,0.8-1.3,1.9-1.7,3.1c-0.4,1.2-0.6,2.6-0.6,4.1c0,1.6,0.2,2.9,0.6,4.2
	c0.4,1.2,1,2.2,1.8,3.1c0.8,0.8,1.6,1.5,2.6,1.9c1,0.4,2.1,0.6,3.2,0.6c0.7,0,1.3,0,1.8-0.1c0.6-0.1,1.1-0.2,1.5-0.3
	c0.5-0.2,0.9-0.4,1.3-0.6c0.4-0.3,0.8-0.6,1.3-1c0.1-0.1,0.3-0.2,0.5-0.3C105.3,319.4,105.5,319.3,105.7,319.3"/>
<path class="st0" d="M145.6,326.5h-4.6c-0.5,0-0.9-0.1-1.3-0.4c-0.3-0.2-0.6-0.6-0.7-0.9l-2-5.5h-11.5l-2,5.5
	c-0.1,0.3-0.4,0.6-0.7,0.9c-0.3,0.3-0.8,0.4-1.3,0.4h-4.7l11.3-28.9h6.1L145.6,326.5z M135.5,315.5l-3.1-8.9c-0.2-0.5-0.4-1-0.6-1.6
	c-0.2-0.6-0.4-1.3-0.6-2c-0.2,0.7-0.4,1.4-0.6,2.1c-0.2,0.6-0.4,1.2-0.6,1.6l-3.1,8.8H135.5z"/>
<polygon class="st0" points="173.9,302.3 165.4,302.3 165.4,326.5 159.4,326.5 159.4,302.3 151,302.3 151,297.5 173.9,297.5 "/>
<path class="st0" d="M208,326.5h-4.6c-0.5,0-0.9-0.1-1.3-0.4c-0.3-0.2-0.6-0.6-0.7-0.9l-2-5.5h-11.5l-2,5.5
	c-0.1,0.3-0.4,0.6-0.7,0.9c-0.3,0.3-0.8,0.4-1.3,0.4h-4.7l11.3-28.9h6.1L208,326.5z M197.9,315.5l-3.1-8.9c-0.2-0.5-0.4-1-0.6-1.6
	c-0.2-0.6-0.4-1.3-0.6-2c-0.2,0.7-0.4,1.4-0.6,2.1c-0.2,0.6-0.4,1.2-0.6,1.6l-3.1,8.8H197.9z M202.3,289.3l-6.4,5.7
	c-0.1,0.1-0.3,0.2-0.4,0.3c-0.1,0.1-0.3,0.1-0.4,0.2c-0.1,0-0.3,0.1-0.5,0.1c-0.2,0-0.4,0-0.5,0h-4l4-5.4c0.1-0.2,0.3-0.4,0.4-0.5
	c0.1-0.1,0.3-0.2,0.5-0.3c0.2-0.1,0.4-0.1,0.6-0.1c0.2,0,0.5,0,0.7,0H202.3z"/>
<path class="st0" d="M243.4,297.5v28.9h-3.1c-0.5,0-0.9-0.1-1.2-0.2c-0.3-0.2-0.6-0.4-0.9-0.8l-14.4-18.3c0,0.5,0.1,0.9,0.1,1.4
	c0,0.5,0,0.9,0,1.3v16.7h-5.3v-28.9h3.2c0.3,0,0.5,0,0.6,0c0.2,0,0.3,0.1,0.5,0.1c0.1,0.1,0.3,0.2,0.4,0.3c0.1,0.1,0.3,0.3,0.4,0.5
	l14.5,18.4c-0.1-0.5-0.1-1-0.1-1.5c0-0.5,0-0.9,0-1.3v-16.6H243.4z"/>
<path class="st0" d="M327.4,321.4c0.6,0,1.1,0.2,1.4,0.5c0.3,0.3,0.5,0.8,0.5,1.3v3.2h-20.1v-1.8c0-0.3,0.1-0.7,0.2-1.1
	c0.1-0.4,0.4-0.8,0.7-1.1l8.6-8.6c0.7-0.7,1.4-1.4,1.9-2.1c0.6-0.7,1-1.3,1.4-2c0.4-0.6,0.7-1.3,0.8-2c0.2-0.7,0.3-1.4,0.3-2.1
	c0-1.3-0.3-2.3-1-2.9c-0.7-0.7-1.6-1-2.8-1c-0.5,0-1,0.1-1.5,0.2c-0.4,0.2-0.8,0.4-1.2,0.6c-0.4,0.3-0.7,0.6-0.9,0.9
	c-0.3,0.4-0.4,0.8-0.6,1.2c-0.2,0.7-0.6,1.1-1,1.3c-0.4,0.2-1,0.3-1.7,0.1l-2.9-0.5c0.2-1.4,0.6-2.6,1.2-3.7
	c0.6-1.1,1.3-1.9,2.2-2.7c0.9-0.7,1.9-1.2,3-1.6c1.1-0.4,2.3-0.5,3.6-0.5c1.4,0,2.6,0.2,3.7,0.6c1.1,0.4,2.1,1,2.9,1.7
	c0.8,0.7,1.4,1.6,1.9,2.6c0.4,1,0.7,2.2,0.7,3.4c0,1.1-0.2,2-0.5,2.9c-0.3,0.9-0.7,1.8-1.2,2.6c-0.5,0.8-1.1,1.6-1.8,2.4
	c-0.7,0.8-1.4,1.5-2.2,2.3L317,322c0.7-0.2,1.3-0.4,2-0.5c0.7-0.1,1.3-0.2,1.9-0.2H327.4z"/>
<path class="st0" d="M361.2,312c0,2.5-0.3,4.7-0.8,6.6c-0.5,1.9-1.3,3.4-2.3,4.6c-1,1.2-2.1,2.1-3.4,2.7c-1.3,0.6-2.7,0.9-4.2,0.9
	c-1.5,0-2.9-0.3-4.2-0.9c-1.3-0.6-2.4-1.5-3.4-2.7c-0.9-1.2-1.7-2.8-2.2-4.6s-0.8-4.1-0.8-6.6c0-2.5,0.3-4.7,0.8-6.6
	c0.5-1.9,1.3-3.4,2.2-4.6c0.9-1.2,2.1-2.1,3.4-2.7c1.3-0.6,2.7-0.9,4.2-0.9c1.5,0,2.9,0.3,4.2,0.9c1.3,0.6,2.4,1.5,3.4,2.7
	c1,1.2,1.7,2.8,2.3,4.6C360.9,307.3,361.2,309.5,361.2,312 M355.5,312c0-2-0.1-3.7-0.4-5.1c-0.3-1.3-0.7-2.4-1.1-3.2
	c-0.5-0.8-1-1.3-1.6-1.6c-0.6-0.3-1.2-0.5-1.9-0.5c-0.6,0-1.3,0.2-1.8,0.5c-0.6,0.3-1.1,0.8-1.6,1.6c-0.5,0.8-0.8,1.8-1.1,3.2
	c-0.3,1.3-0.4,3-0.4,5.1c0,2.1,0.1,3.8,0.4,5.1c0.3,1.3,0.6,2.4,1.1,3.2c0.5,0.8,1,1.3,1.6,1.6c0.6,0.3,1.2,0.5,1.8,0.5
	c0.6,0,1.3-0.2,1.9-0.5c0.6-0.3,1.1-0.8,1.6-1.6c0.5-0.8,0.8-1.8,1.1-3.2C355.4,315.7,355.5,314,355.5,312"/>
<path class="st0" d="M389.6,321.4c0.6,0,1.1,0.2,1.4,0.5c0.3,0.3,0.5,0.8,0.5,1.3v3.2h-20.1v-1.8c0-0.3,0.1-0.7,0.2-1.1
	c0.1-0.4,0.4-0.8,0.7-1.1l8.6-8.6c0.7-0.7,1.4-1.4,1.9-2.1c0.6-0.7,1-1.3,1.4-2c0.4-0.6,0.7-1.3,0.8-2c0.2-0.7,0.3-1.4,0.3-2.1
	c0-1.3-0.3-2.3-1-2.9c-0.7-0.7-1.6-1-2.8-1c-0.5,0-1,0.1-1.5,0.2c-0.4,0.2-0.8,0.4-1.2,0.6c-0.4,0.3-0.7,0.6-0.9,0.9
	c-0.3,0.4-0.4,0.8-0.6,1.2c-0.2,0.7-0.6,1.1-1,1.3c-0.4,0.2-1,0.3-1.7,0.1l-2.9-0.5c0.2-1.4,0.6-2.6,1.2-3.7
	c0.6-1.1,1.3-1.9,2.2-2.7c0.9-0.7,1.9-1.2,3-1.6c1.1-0.4,2.3-0.5,3.6-0.5c1.4,0,2.6,0.2,3.7,0.6c1.1,0.4,2.1,1,2.9,1.7
	c0.8,0.7,1.4,1.6,1.9,2.6c0.4,1,0.7,2.2,0.7,3.4c0,1.1-0.2,2-0.5,2.9c-0.3,0.9-0.7,1.8-1.2,2.6c-0.5,0.8-1.1,1.6-1.8,2.4
	c-0.7,0.8-1.4,1.5-2.2,2.3l-6.1,6.3c0.7-0.2,1.3-0.4,2-0.5c0.7-0.1,1.3-0.2,1.9-0.2H389.6z"/>
<path class="st0" d="M423.3,315.4v3.1c0,0.3-0.1,0.5-0.3,0.7c-0.2,0.2-0.5,0.3-0.8,0.3H420v6.9h-4.8v-6.9h-11.9
	c-0.3,0-0.7-0.1-0.9-0.3c-0.3-0.2-0.5-0.5-0.5-0.8l-0.6-2.8l13.6-18.2h5.2v17.9H423.3z M415.2,315.4v-8.6c0-0.5,0-0.9,0-1.4
	c0-0.5,0.1-1,0.2-1.6l-8.4,11.7H415.2z"/>
<path class="st1" d="M433.8,314.6c0-0.6,0.1-1.1,0.3-1.6c0.2-0.5,0.5-0.9,0.9-1.3c0.4-0.4,0.8-0.7,1.3-0.9c0.5-0.2,1-0.3,1.6-0.3
	c0.6,0,1.1,0.1,1.6,0.3c0.5,0.2,0.9,0.5,1.3,0.9c0.4,0.4,0.7,0.8,0.9,1.3c0.2,0.5,0.3,1,0.3,1.6c0,0.5-0.1,1.1-0.3,1.5
	c-0.2,0.5-0.5,0.9-0.9,1.3c-0.4,0.4-0.8,0.6-1.3,0.9c-0.5,0.2-1,0.3-1.6,0.3c-0.6,0-1.1-0.1-1.6-0.3c-0.5-0.2-0.9-0.5-1.3-0.9
	c-0.4-0.4-0.7-0.8-0.9-1.3C433.9,315.6,433.8,315.1,433.8,314.6"/>
<path class="st2" d="M272,314.6c0-0.6,0.1-1.1,0.3-1.6c0.2-0.5,0.5-0.9,0.9-1.3c0.4-0.4,0.8-0.7,1.3-0.9c0.5-0.2,1-0.3,1.6-0.3
	c0.6,0,1.1,0.1,1.6,0.3c0.5,0.2,0.9,0.5,1.3,0.9c0.4,0.4,0.7,0.8,0.9,1.3c0.2,0.5,0.3,1,0.3,1.6c0,0.5-0.1,1.1-0.3,1.5
	c-0.2,0.5-0.5,0.9-0.9,1.3c-0.4,0.4-0.8,0.6-1.3,0.9c-0.5,0.2-1,0.3-1.6,0.3c-0.6,0-1.1-0.1-1.6-0.3c-0.5-0.2-0.9-0.5-1.3-0.9
	c-0.4-0.4-0.7-0.8-0.9-1.3C272.2,315.6,272,315.1,272,314.6"/>
<path class="st0" d="M471,321.4c0.6,0,1.1,0.2,1.4,0.5c0.3,0.3,0.5,0.8,0.5,1.3v3.2h-20.1v-1.8c0-0.3,0.1-0.7,0.2-1.1
	c0.1-0.4,0.4-0.8,0.7-1.1l8.6-8.6c0.7-0.7,1.4-1.4,1.9-2.1c0.6-0.7,1-1.3,1.4-2c0.4-0.6,0.7-1.3,0.8-2c0.2-0.7,0.3-1.4,0.3-2.1
	c0-1.3-0.3-2.3-1-2.9c-0.7-0.7-1.6-1-2.8-1c-0.5,0-1,0.1-1.5,0.2c-0.4,0.2-0.8,0.4-1.2,0.6c-0.4,0.3-0.7,0.6-0.9,0.9
	c-0.3,0.4-0.4,0.8-0.6,1.2c-0.2,0.7-0.6,1.1-1,1.3c-0.4,0.2-1,0.3-1.7,0.1l-2.9-0.5c0.2-1.4,0.6-2.6,1.2-3.7
	c0.6-1.1,1.3-1.9,2.2-2.7c0.9-0.7,1.9-1.2,3-1.6c1.1-0.4,2.3-0.5,3.6-0.5c1.4,0,2.6,0.2,3.7,0.6c1.1,0.4,2.1,1,2.9,1.7
	c0.8,0.7,1.4,1.6,1.9,2.6c0.4,1,0.7,2.2,0.7,3.4c0,1.1-0.2,2-0.5,2.9c-0.3,0.9-0.7,1.8-1.2,2.6c-0.5,0.8-1.1,1.6-1.8,2.4
	c-0.7,0.8-1.4,1.5-2.2,2.3l-6.1,6.3c0.7-0.2,1.3-0.4,2-0.5c0.7-0.1,1.3-0.2,1.9-0.2H471z"/>
<path class="st0" d="M504.8,312c0,2.5-0.3,4.7-0.8,6.6c-0.5,1.9-1.3,3.4-2.3,4.6c-1,1.2-2.1,2.1-3.4,2.7c-1.3,0.6-2.7,0.9-4.2,0.9
	c-1.5,0-2.9-0.3-4.2-0.9c-1.3-0.6-2.4-1.5-3.4-2.7c-0.9-1.2-1.7-2.8-2.2-4.6c-0.5-1.9-0.8-4.1-0.8-6.6c0-2.5,0.3-4.7,0.8-6.6
	c0.5-1.9,1.3-3.4,2.2-4.6c0.9-1.2,2.1-2.1,3.4-2.7c1.3-0.6,2.7-0.9,4.2-0.9c1.5,0,2.9,0.3,4.2,0.9c1.3,0.6,2.4,1.5,3.4,2.7
	c1,1.2,1.7,2.8,2.3,4.6C504.5,307.3,504.8,309.5,504.8,312 M499.1,312c0-2-0.1-3.7-0.4-5.1c-0.3-1.3-0.7-2.4-1.1-3.2
	c-0.5-0.8-1-1.3-1.6-1.6c-0.6-0.3-1.2-0.5-1.9-0.5c-0.6,0-1.3,0.2-1.8,0.5c-0.6,0.3-1.1,0.8-1.6,1.6c-0.5,0.8-0.8,1.8-1.1,3.2
	c-0.3,1.3-0.4,3-0.4,5.1c0,2.1,0.1,3.8,0.4,5.1c0.3,1.3,0.6,2.4,1.1,3.2c0.5,0.8,1,1.3,1.6,1.6c0.6,0.3,1.2,0.5,1.8,0.5
	c0.6,0,1.3-0.2,1.9-0.5c0.6-0.3,1.1-0.8,1.6-1.6c0.5-0.8,0.8-1.8,1.1-3.2C499,315.7,499.1,314,499.1,312"/>
<path class="st0" d="M515.6,305.7c0.2-1.4,0.6-2.6,1.2-3.7c0.6-1.1,1.3-1.9,2.2-2.7c0.9-0.7,1.9-1.2,3-1.6c1.1-0.4,2.3-0.5,3.6-0.5
	c1.4,0,2.6,0.2,3.7,0.6c1.1,0.4,2,0.9,2.8,1.6c0.8,0.7,1.3,1.5,1.7,2.4c0.4,0.9,0.6,1.9,0.6,2.9c0,0.9-0.1,1.7-0.3,2.4
	c-0.2,0.7-0.5,1.3-0.9,1.8c-0.4,0.5-0.8,1-1.4,1.3c-0.6,0.4-1.2,0.7-1.9,0.9c3.3,1.1,5,3.3,5,6.6c0,1.5-0.3,2.8-0.8,3.9
	c-0.5,1.1-1.3,2.1-2.2,2.8c-0.9,0.8-2,1.3-3.2,1.7c-1.2,0.4-2.5,0.6-3.8,0.6c-1.4,0-2.7-0.2-3.7-0.5c-1.1-0.3-2-0.8-2.8-1.4
	c-0.8-0.6-1.5-1.4-2.1-2.4c-0.6-1-1.1-2.1-1.5-3.4l2.4-1c0.6-0.3,1.2-0.3,1.8-0.2c0.6,0.1,0.9,0.4,1.2,0.9c0.3,0.5,0.5,1,0.8,1.4
	c0.3,0.4,0.6,0.8,1,1.1c0.4,0.3,0.8,0.6,1.3,0.7c0.5,0.2,1,0.3,1.6,0.3c0.8,0,1.4-0.1,2-0.4c0.6-0.3,1.1-0.6,1.4-1
	c0.4-0.4,0.7-0.9,0.9-1.4c0.2-0.5,0.3-1,0.3-1.5c0-0.7-0.1-1.3-0.2-1.8c-0.1-0.5-0.4-1-0.8-1.4c-0.4-0.4-1.1-0.7-1.9-0.9
	c-0.8-0.2-2-0.3-3.4-0.3v-3.9c1.2,0,2.2-0.1,3-0.3c0.8-0.2,1.4-0.5,1.8-0.8c0.4-0.4,0.7-0.8,0.9-1.3c0.2-0.5,0.2-1.1,0.2-1.7
	c0-1.3-0.3-2.2-1-2.9c-0.7-0.7-1.6-1-2.8-1c-0.5,0-1,0.1-1.5,0.2c-0.4,0.2-0.8,0.4-1.2,0.6c-0.4,0.3-0.7,0.6-0.9,0.9
	c-0.3,0.4-0.4,0.8-0.6,1.2c-0.3,0.7-0.6,1.1-1,1.3c-0.4,0.2-1,0.3-1.7,0.1L515.6,305.7z"/>
<path class="st0" d="M567,312c0,2.5-0.3,4.7-0.8,6.6c-0.5,1.9-1.3,3.4-2.3,4.6c-1,1.2-2.1,2.1-3.4,2.7c-1.3,0.6-2.7,0.9-4.2,0.9
	c-1.5,0-2.9-0.3-4.2-0.9c-1.3-0.6-2.4-1.5-3.4-2.7c-0.9-1.2-1.7-2.8-2.2-4.6c-0.5-1.9-0.8-4.1-0.8-6.6c0-2.5,0.3-4.7,0.8-6.6
	c0.5-1.9,1.3-3.4,2.2-4.6c0.9-1.2,2.1-2.1,3.4-2.7c1.3-0.6,2.7-0.9,4.2-0.9c1.5,0,2.9,0.3,4.2,0.9c1.3,0.6,2.4,1.5,3.4,2.7
	c1,1.2,1.7,2.8,2.3,4.6C566.7,307.3,567,309.5,567,312 M561.3,312c0-2-0.1-3.7-0.4-5.1c-0.3-1.3-0.7-2.4-1.1-3.2
	c-0.5-0.8-1-1.3-1.6-1.6c-0.6-0.3-1.2-0.5-1.9-0.5c-0.6,0-1.3,0.2-1.8,0.5c-0.6,0.3-1.1,0.8-1.6,1.6c-0.5,0.8-0.8,1.8-1.1,3.2
	c-0.3,1.3-0.4,3-0.4,5.1c0,2.1,0.1,3.8,0.4,5.1c0.3,1.3,0.6,2.4,1.1,3.2c0.5,0.8,1,1.3,1.6,1.6c0.6,0.3,1.2,0.5,1.8,0.5
	c0.6,0,1.3-0.2,1.9-0.5c0.6-0.3,1.1-0.8,1.6-1.6c0.5-0.8,0.8-1.8,1.1-3.2C561.2,315.7,561.3,314,561.3,312"/>
<path class="st3" d="M160.2,151.5l-17.9-17.9l17.9-17.9c1.7-1.7,2.5-3.9,2.5-6.1l0-8.3l-8.3,0c-2.2,0-4.4,0.8-6.1,2.5l-17.9,17.9
	l-17.9-17.9c-3.3-3.3-8.6-3.3-11.9,0c-3.3,3.3-3.3,8.6,0,11.9l17.9,17.9l-17.9,17.9c-3.3,3.3-3.3,8.6,0,11.9c3.3,3.3,8.6,3.3,11.9,0
	l17.9-17.9l17.9,17.9c3.3,3.3,8.6,3.3,11.9,0C163.5,160.2,163.5,154.8,160.2,151.5 M138.8,142.1h-16.9v-16.9h16.9V142.1z"/>
<path class="st0" d="M121.9,150.5c0,4.7,3.8,8.4,8.4,8.4c4.7,0,8.4-3.8,8.4-8.4v-8.4h-16.9V150.5z"/>
<path class="st0" d="M138.8,116.8c0-4.7-3.8-8.4-8.4-8.4c-4.7,0-8.4,3.8-8.4,8.4v8.4h16.9V116.8z"/>
<path class="st0" d="M113.5,125.2c-4.7,0-8.4,3.8-8.4,8.4c0,4.7,3.8,8.4,8.4,8.4h8.4v-16.9H113.5z"/>
<path class="st0" d="M147.2,125.2h-8.4v16.9h8.4c4.7,0,8.4-3.8,8.4-8.4C155.6,129,151.9,125.2,147.2,125.2"/>
<path class="st2" d="M62.4,103.8l-17.9,17.9l-17.9-17.9c-1.7-1.7-3.9-2.5-6.1-2.5l-8.3,0l0,8.3c0,2.2,0.8,4.4,2.5,6.1l17.9,17.9
	l-17.9,17.9c-3.3,3.3-3.3,8.6,0,11.9c3.3,3.3,8.6,3.3,11.9,0l17.9-17.9l17.9,17.9c3.3,3.3,8.6,3.3,11.9,0c3.3-3.3,3.3-8.6,0-11.9
	l-17.9-17.9l17.9-17.9c3.3-3.3,3.3-8.6,0-11.9C71,100.5,65.6,100.5,62.4,103.8 M52.9,125.2l0,16.9H36v-16.9H52.9z"/>
<path class="st0" d="M61.3,142.1c4.7,0,8.4-3.8,8.4-8.4c0-4.7-3.8-8.4-8.4-8.4h-8.4l0,16.9H61.3z"/>
<path class="st0" d="M27.6,125.2c-4.7,0-8.4,3.8-8.4,8.4c0,4.7,3.8,8.4,8.4,8.4H36v-16.9H27.6z"/>
<path class="st0" d="M36,150.5c0,4.7,3.8,8.4,8.4,8.4c4.7,0,8.4-3.8,8.4-8.4v-8.4H36V150.5z"/>
<path class="st0" d="M36,116.8v8.4h16.9v-8.4c0-4.7-3.8-8.4-8.4-8.4C39.8,108.3,36,112.1,36,116.8"/>
<path class="st1" d="M14.6,201.5l17.9,17.9l-17.9,17.9c-1.7,1.7-2.5,3.9-2.5,6.1l0,8.3l8.3,0c2.2,0,4.4-0.8,6.1-2.5l17.9-17.9
	l17.9,17.9c3.3,3.3,8.6,3.3,11.9,0c3.3-3.3,3.3-8.6,0-11.9l-17.9-17.9l17.9-17.9c3.3-3.3,3.3-8.6,0-11.9c-3.3-3.3-8.6-3.3-11.9,0
	l-17.9,17.9l-17.9-17.9c-3.3-3.3-8.6-3.3-11.9,0C11.3,192.9,11.3,198.2,14.6,201.5 M36,211h16.9v16.9H36V211z"/>
<path class="st0" d="M52.9,202.6c0-4.7-3.8-8.4-8.4-8.4c-4.7,0-8.4,3.8-8.4,8.4v8.4h16.9V202.6z"/>
<path class="st0" d="M36,236.3c0,4.7,3.8,8.4,8.4,8.4c4.7,0,8.4-3.8,8.4-8.4v-8.4H36V236.3z"/>
<path class="st0" d="M61.3,227.9c4.7,0,8.4-3.8,8.4-8.4S66,211,61.3,211h-8.4v16.9H61.3z"/>
<path class="st0" d="M27.6,227.9H36V211h-8.4c-4.7,0-8.4,3.8-8.4,8.4S22.9,227.9,27.6,227.9"/>
<path class="st4" d="M112.5,249.3l17.9-17.9l17.9,17.9c1.7,1.7,3.9,2.5,6.1,2.5l8.3,0l0-8.3c0-2.2-0.8-4.4-2.5-6.1l-17.9-17.9
	l17.9-17.9c3.3-3.3,3.3-8.6,0-11.9c-3.3-3.3-8.6-3.3-11.9,0l-17.9,17.9l-17.9-17.9c-3.3-3.3-8.6-3.3-11.9,0c-3.3,3.3-3.3,8.6,0,11.9
	l17.9,17.9l-17.9,17.9c-3.3,3.3-3.3,8.6,0,11.9C103.8,252.6,109.2,252.6,112.5,249.3 M121.9,227.9V211h16.9v16.9H121.9z"/>
<path class="st0" d="M113.5,211c-4.7,0-8.4,3.8-8.4,8.4s3.8,8.4,8.4,8.4h8.4V211H113.5z"/>
<path class="st0" d="M147.2,227.9c4.7,0,8.4-3.8,8.4-8.4s-3.8-8.4-8.4-8.4h-8.4l0,16.9H147.2z"/>
<path class="st0" d="M138.8,202.6c0-4.7-3.8-8.4-8.4-8.4s-8.4,3.8-8.4,8.4v8.4h16.9V202.6z"/>
<path class="st0" d="M138.8,236.3v-8.4h-16.9v8.4c0,4.7,3.8,8.4,8.4,8.4S138.8,241,138.8,236.3"/>
<path class="st0" d="M98,172.1v15.1H82.9c-3.3,0-6.1-2.7-6.1-6.1V166h15.1C95.3,166,98,168.7,98,172.1"/>
<path class="st1" d="M314.5,120.8c-7.2-6.5-16.6-11.4-27.9-14.6c-11-3.2-24.4-4.8-39.9-4.8h-58.4v150.4h58.4
	c15.5,0,28.9-1.6,39.9-4.8c11.2-3.3,20.6-8.1,27.9-14.5c7.3-6.5,12.8-14.5,16.2-24c3.3-9.2,5-19.9,5-31.8c0-11.8-1.7-22.5-5-31.8
	C327.2,135.4,321.8,127.3,314.5,120.8 M238.8,145.9h4.5c8.3,0,15.5,0.5,21.4,1.6c5.4,1,9.9,2.7,13.2,5c3.1,2.2,5.4,5.1,6.8,8.9
	c1.6,4,2.4,9.3,2.4,15.5c0,6.3-0.8,11.6-2.4,15.5c-1.5,3.7-3.7,6.5-6.8,8.6c-3.3,2.2-7.7,3.8-13.2,4.7c-5.9,1-13.1,1.4-21.5,1.4
	h-4.5V145.9z"/>
<rect x="356.4" y="101.6" class="st0" width="50.3" height="150.2"/>
<polygon class="st4" points="566.8,146.1 566.8,101.6 432.1,101.6 432.1,251.7 482.6,251.7 482.6,206.3 566.8,206.3 566.8,161.5 
	482.6,161.5 482.6,146.1 "/>
</svg>
